<svg xmlns="http://www.w3.org/2000/svg" viewBox="0 0 400 120">
  <!-- Background Circle -->
  <circle cx="60" cy="60" r="50" fill="#2563eb" opacity="0.1"/>
  
  <!-- Airplane Path Trail -->
  <path d="M 15 65 Q 35 45, 55 55 T 95 50" stroke="#3b82f6" stroke-width="2" fill="none" stroke-dasharray="3,3" opacity="0.6"/>
  
  <!-- Airplane Icon -->
  <g transform="translate(30, 35)">
    <!-- Airplane body -->
    <path d="M 20 25 L 45 15 L 50 20 L 30 28 L 35 32 L 40 30 L 42 32 L 35 35 L 30 32 L 20 35 L 18 30 Z" fill="#2563eb"/>
    <!-- Wings -->
    <path d="M 25 25 L 15 20 L 18 23 Z" fill="#3b82f6"/>
    <path d="M 25 28 L 15 33 L 18 30 Z" fill="#3b82f6"/>
    <!-- Window -->
    <circle cx="35" cy="26" r="2" fill="#60a5fa"/>
  </g>
  
  <!-- Globe/Location Pin -->
  <g transform="translate(45, 75)">
    <circle cx="15" cy="12" r="12" fill="none" stroke="#10b981" stroke-width="2"/>
    <circle cx="15" cy="12" r="8" fill="none" stroke="#10b981" stroke-width="1.5" opacity="0.5"/>
    <path d="M 15 8 L 15 16 M 11 12 L 19 12" stroke="#10b981" stroke-width="2"/>
    <circle cx="15" cy="12" r="3" fill="#10b981"/>
  </g>
  
  <!-- Company Name -->
  <text x="120" y="50" font-family="'Poppins', 'Arial', sans-serif" font-size="36" font-weight="700" fill="#1e293b">
    Miebookie
  </text>
  
  <!-- Travels Text -->
  <text x="120" y="75" font-family="'Poppins', 'Arial', sans-serif" font-size="20" font-weight="400" fill="#64748b" letter-spacing="2">
    TRAVELS
  </text>
  
  <!-- Decorative Line -->
  <line x1="120" y1="82" x2="260" y2="82" stroke="#3b82f6" stroke-width="2"/>
  
  <!-- Tagline (Optional) -->
  <text x="120" y="100" font-family="'Poppins', 'Arial', sans-serif" font-size="12" fill="#94a3b8" font-style="italic">
    Your Journey, Our Passion
  </text>
  
  <!-- Decorative Travel Icons -->
  <g transform="translate(340, 30)">
    <!-- Compass -->
    <circle cx="20" cy="20" r="18" fill="none" stroke="#f59e0b" stroke-width="2" opacity="0.3"/>
    <circle cx="20" cy="20" r="3" fill="#f59e0b"/>
    <line x1="20" y1="5" x2="20" y2="15" stroke="#f59e0b" stroke-width="2"/>
    <text x="17" y="10" font-size="10" fill="#f59e0b" font-weight="bold">N</text>
  </g>
  
  <!-- Animated Elements -->
  <style>
    @keyframes fly {
      0%, 100% { transform: translate(0, 0); }
      50% { transform: translate(5px, -3px); }
    }
    
    @keyframes pulse {
      0%, 100% { opacity: 0.3; }
      50% { opacity: 0.6; }
    }
    
    svg:hover g:first-of-type {
      animation: fly 2s ease-in-out infinite;
    }
    
    circle[opacity] {
      animation: pulse 2s ease-in-out infinite;
    }
  </style>
</svg>